<svg width="24" height="24" viewBox="0 0 24 24" fill="none" xmlns="http://www.w3.org/2000/svg">
  <rect width="24" height="24" rx="4" fill="#4CAF50"/>
  <path d="M12 6C10.3431 6 9 7.34315 9 9C9 10.6569 10.3431 12 12 12C13.6569 12 15 10.6569 15 9C15 7.34315 13.6569 6 12 6Z" fill="white"/>
  <path d="M18 9C18 12.3137 15.3137 15 12 15C8.68629 15 6 12.3137 6 9C6 5.68629 8.68629 3 12 3C15.3137 3 18 5.68629 18 9Z" stroke="white" stroke-width="2"/>
  <path d="M18.5 15C19.8807 15 21 16.1193 21 17.5C21 18.8807 19.8807 20 18.5 20C17.1193 20 16 18.8807 16 17.5C16 16.1193 17.1193 15 18.5 15Z" fill="white"/>
  <path d="M5.5 15C6.88071 15 8 16.1193 8 17.5C8 18.8807 6.88071 20 5.5 20C4.11929 20 3 18.8807 3 17.5C3 16.1193 4.11929 15 5.5 15Z" fill="white"/>
  <path d="M12 15V21" stroke="white" stroke-width="2" stroke-linecap="round"/>
</svg>